# xmcd CD database file
#
# Track frame offsets:
#	150
#	17132
#	30949
#	44936
#	62985
#	77300
#	92334
#	108726
#	124359
#	149977
#	167198
#	186795
#	200951
#	221017
#
# Disc length: 3129 seconds
#
# Revision: 0
# Processed by: cddbd v1.5.2PL0 Copyright (c) Steve Scherf et al.
# Submitted via: CDex 1.51
#
DISCID=d80c370e
DTITLE=Billie Holiday - Her Greatest Songs
DYEAR=2006
DGENRE=Jazz
TTITLE0=Lady Sings The Blues
TTITLE1=Strange Fruit
TTITLE2=I Must Have That Man
TTITLE3=God Bless The Child
TTITLE4=Travelin´ Light
TTITLE5=No Good Man
TTITLE6=Some Other Spring
TTITLE7=Good Morning Heartache
TTITLE8=All Or Nothing At All
TTITLE9=Nice Work If You Can get It
TTITLE10=Please Don´t Talk about Me When I´m Gone
TTITLE11=Willow Weep For Me
TTITLE12=Speak Low
TTITLE13=April in Paris
EXTD=YEAR: 2006
EXTT0=
EXTT1=
EXTT2=
EXTT3=
EXTT4=
EXTT5=
EXTT6=
EXTT7=
EXTT8=
EXTT9=
EXTT10=
EXTT11=
EXTT12=
EXTT13=
PLAYORDER=
